<svg xmlns="http://www.w3.org/2000/svg" xmlns:xlink="http://www.w3.org/1999/xlink" id="Layer_2" data-name="Layer 2" viewBox="0 0 303.08 78.07">
  <defs>
    <style>
      .cls-1 {
        fill: #231f20;
      }

      .cls-2 {
        fill: url(#New_Gradient_Swatch_1);
      }
    </style>
    <linearGradient id="New_Gradient_Swatch_1" data-name="New Gradient Swatch 1" x1="163.9" y1="17.49" x2="206.98" y2="60.57" gradientUnits="userSpaceOnUse">
      <stop offset="0" stop-color="#ec73ac"/>
      <stop offset=".5" stop-color="#f6a3ae"/>
      <stop offset="1" stop-color="#fcba74"/>
    </linearGradient>
  </defs>
  <g id="Layer_1-2" data-name="Layer 1">
    <path class="cls-1" d="M30.51,76.97L0,1.09h11.26l25.04,64.18h-4.05L57.51,1.09h11.04l-30.61,75.88h-7.43Z"/>
    <path class="cls-1" d="M118.74,78.07c-5.9,0-10.97-1.09-15.2-3.28-4.23-2.19-7.98-5.36-11.26-9.51l7-7c2.41,3.35,5.17,5.89,8.31,7.6,3.13,1.71,7,2.57,11.59,2.57s8.15-.98,10.88-2.95c2.73-1.97,4.1-4.66,4.1-8.09,0-2.84-.67-5.14-2.02-6.89-1.35-1.75-3.12-3.19-5.3-4.32-2.19-1.13-4.59-2.13-7.22-3.01s-5.25-1.84-7.87-2.9c-2.62-1.06-5.05-2.39-7.27-3.99-2.22-1.6-3.99-3.66-5.3-6.18-1.31-2.51-1.97-5.74-1.97-9.68,0-4.3,1.04-7.96,3.12-10.99,2.08-3.02,4.92-5.36,8.53-7s7.67-2.46,12.19-2.46c4.96,0,9.4.97,13.34,2.9,3.94,1.93,7.14,4.47,9.62,7.6l-7,7c-2.26-2.62-4.68-4.59-7.27-5.9-2.59-1.31-5.56-1.97-8.91-1.97-4.08,0-7.33.89-9.73,2.68s-3.61,4.28-3.61,7.49c0,2.55.67,4.61,2.02,6.18,1.35,1.57,3.12,2.9,5.3,3.99,2.19,1.09,4.61,2.1,7.27,3.01,2.66.91,5.3,1.91,7.93,3.01,2.62,1.09,5.03,2.48,7.22,4.16,2.19,1.68,3.95,3.85,5.3,6.51,1.35,2.66,2.02,6,2.02,10,0,6.71-2.32,11.96-6.94,15.75-4.63,3.79-10.92,5.69-18.86,5.69Z"/>
    <path class="cls-2" d="M180.3,76.97V1.09h10.28v75.88h-10.28Z"/>
    <path class="cls-1" d="M264.93,78.07c-5.4,0-10.42-1-15.09-3.01-4.67-2-8.75-4.81-12.25-8.42-3.5-3.61-6.23-7.78-8.2-12.52-1.97-4.74-2.95-9.8-2.95-15.2s.98-10.55,2.95-15.25c1.97-4.7,4.68-8.84,8.15-12.41,3.46-3.57,7.51-6.34,12.14-8.31,4.63-1.97,9.64-2.95,15.03-2.95s10.4.98,15.03,2.95c4.63,1.97,8.69,4.74,12.19,8.31,3.5,3.57,6.23,7.73,8.2,12.46,1.97,4.74,2.95,9.84,2.95,15.31s-.98,10.46-2.95,15.2c-1.97,4.74-4.68,8.89-8.15,12.46-3.46,3.57-7.51,6.36-12.14,8.36-4.63,2-9.6,3.01-14.92,3.01ZM264.71,68.23c5.39,0,10.17-1.26,14.32-3.77,4.16-2.52,7.42-5.98,9.79-10.39,2.37-4.41,3.55-9.46,3.55-15.14,0-4.23-.67-8.11-2.02-11.64-1.35-3.53-3.26-6.61-5.74-9.24-2.48-2.62-5.39-4.65-8.75-6.07-3.35-1.42-7.07-2.13-11.15-2.13-5.4,0-10.15,1.24-14.27,3.72-4.12,2.48-7.36,5.9-9.73,10.28-2.37,4.37-3.55,9.4-3.55,15.09,0,4.23.67,8.15,2.02,11.75,1.35,3.61,3.24,6.71,5.69,9.29,2.44,2.59,5.36,4.61,8.75,6.07,3.39,1.46,7.09,2.19,11.1,2.19Z"/>
  </g>
</svg>
